# Blender 4.1.1
# www.blender.org
mtllib pm_monster_collision.mtl
o Cylinder
v 0.017457 1.997269 -0.701616
v 0.375282 -0.002731 -0.593071
v 0.339007 1.997269 -0.608330
v 0.593071 1.997269 -0.375282
v 0.608330 -0.002731 -0.339007
v 0.701616 -0.002731 -0.017457
v 0.701616 1.997269 0.017457
v 0.619844 -0.002731 0.317466
v 0.608330 1.997269 0.339007
v 0.490317 -0.002731 0.490317
v 0.490317 1.997269 0.490317
v 0.339007 -0.002731 0.608330
v 0.317466 1.997269 0.619844
v 0.017457 -0.002731 0.701616
v -0.017457 1.997269 0.701616
v -0.317466 -0.002731 0.619844
v -0.339007 1.997269 0.608330
v -0.490317 -0.002731 0.490317
v -0.593071 1.997269 0.375282
v -0.608330 -0.002731 0.339007
v -0.701616 -0.002731 0.017457
v -0.701616 1.997269 -0.017457
v -0.619844 -0.002731 -0.317466
v -0.608330 1.997269 -0.339007
v -0.490317 -0.002731 -0.490317
v -0.375282 1.997269 -0.593071
v -0.339007 -0.002731 -0.608330
v -0.017457 -0.002731 -0.701616
vn 0.2664 -0.0047 -0.9639
vn 0.7369 -0.0066 -0.6760
vn 0.9604 0.0023 -0.2786
vn 0.9715 -0.0041 0.2372
vn 0.8002 -0.0019 0.5997
vn 0.6150 -0.0000 0.7885
vn 0.2786 -0.0025 0.9604
vn -0.2372 -0.0041 0.9715
vn -0.5997 -0.0019 0.8002
vn -0.7885 -0.0051 0.6150
vn -0.9604 0.0023 0.2786
vn -0.9715 -0.0041 -0.2372
vn -0.8002 -0.0019 -0.5997
vn -0.6150 -0.0051 -0.7885
vn -0.0000 1.0000 -0.0000
vn -0.2786 0.0023 -0.9604
vn -0.0000 -1.0000 -0.0000
vn 0.2786 -0.0023 -0.9604
vn 0.6760 0.0066 -0.7369
vn 0.9639 0.0047 -0.2664
vn 0.9604 0.0025 0.2786
vn 0.7885 -0.0000 0.6150
vn 0.5997 0.0019 0.8002
vn 0.2372 0.0041 0.9715
vn -0.2786 0.0025 0.9604
vn -0.6759 0.0077 0.7369
vn -0.9639 0.0047 0.2664
vn -0.9604 0.0025 -0.2786
vn -0.7369 0.0077 -0.6759
vn -0.2664 0.0047 -0.9639
vt 0.988143 1.000000
vt 0.910348 0.500000
vt 0.987183 0.500000
vt 0.839652 1.000000
vt 0.830933 0.500000
vt 0.753903 0.500000
vt 0.746097 1.000000
vt 0.674683 0.500000
vt 0.669067 1.000000
vt 0.625000 0.500000
vt 0.625000 1.000000
vt 0.580933 0.500000
vt 0.575317 1.000000
vt 0.503903 0.500000
vt 0.496097 1.000000
vt 0.424683 0.500000
vt 0.419067 1.000000
vt 0.375000 0.500000
vt 0.339652 1.000000
vt 0.330933 0.500000
vt 0.253903 0.500000
vt 0.246097 1.000000
vt 0.174683 0.500000
vt 0.169067 1.000000
vt 0.125000 0.500000
vt 0.089652 1.000000
vt 0.080933 0.500000
vt 0.133682 0.041351
vt 0.458649 0.133682
vt 0.366318 0.458649
vt 0.011857 0.500000
vt 0.755848 0.012924
vt 0.512923 0.244152
vt 0.744152 0.487077
vt 0.919067 1.000000
vt 0.255848 0.487077
vt 0.123582 0.450248
vt 0.012924 0.255848
vt 0.049752 0.123582
vt 0.041351 0.366318
vt 0.244152 0.012924
vt 0.358863 0.037366
vt 0.487077 0.244152
vt 0.450248 0.376418
vt 0.419706 0.080294
vt 0.012817 1.000000
vt 0.962634 0.141137
vt 0.919706 0.080294
vt 0.866318 0.041351
vt 0.641137 0.037366
vt 0.580294 0.080294
vt 0.541351 0.133682
vt 0.537366 0.358863
vt 0.580294 0.419706
vt 0.633682 0.458649
vt 0.876418 0.450248
vt 0.987076 0.255848
vt 0.958649 0.366318
s 0
f 1/1/1 2/2/1 28/3/1
f 4/4/2 5/5/2 2/2/2
f 4/4/3 6/6/3 5/5/3
f 7/7/4 8/8/4 6/6/4
f 9/9/5 10/10/5 8/8/5
f 11/11/6 12/12/6 10/10/6
f 13/13/7 14/14/7 12/12/7
f 15/15/8 16/16/8 14/14/8
f 17/17/9 18/18/9 16/16/9
f 19/19/10 20/20/10 18/18/10
f 19/19/11 21/21/11 20/20/11
f 22/22/12 23/23/12 21/21/12
f 24/24/13 25/25/13 23/23/13
f 26/26/14 27/27/14 25/25/14
f 17/28/15 9/29/15 3/30/15
f 26/26/16 28/31/16 27/27/16
f 14/32/17 21/33/17 28/34/17
f 1/1/18 3/35/18 2/2/18
f 3/35/19 4/4/19 2/2/19
f 4/4/20 7/7/20 6/6/20
f 7/7/21 9/9/21 8/8/21
f 9/9/22 11/11/22 10/10/22
f 11/11/23 13/13/23 12/12/23
f 13/13/24 15/15/24 14/14/24
f 15/15/25 17/17/25 16/16/25
f 17/17/26 19/19/26 18/18/26
f 19/19/27 22/22/27 21/21/27
f 22/22/28 24/24/28 23/23/28
f 24/24/29 26/26/29 25/25/29
f 1/36/15 26/37/15 3/30/15
f 22/38/15 19/39/15 24/40/15
f 17/28/15 15/41/15 13/42/15
f 9/29/15 7/43/15 4/44/15
f 26/37/15 24/40/15 3/30/15
f 19/39/15 17/28/15 24/40/15
f 13/42/15 11/45/15 17/28/15
f 11/45/15 9/29/15 17/28/15
f 4/44/15 3/30/15 9/29/15
f 3/30/15 24/40/15 17/28/15
f 26/26/30 1/46/30 28/31/30
f 8/47/17 10/48/17 12/49/17
f 16/50/17 18/51/17 20/52/17
f 23/53/17 25/54/17 27/55/17
f 28/34/17 2/56/17 6/57/17
f 2/56/17 5/58/17 6/57/17
f 6/57/17 8/47/17 14/32/17
f 8/47/17 12/49/17 14/32/17
f 14/32/17 16/50/17 21/33/17
f 16/50/17 20/52/17 21/33/17
f 21/33/17 23/53/17 28/34/17
f 23/53/17 27/55/17 28/34/17
f 28/34/17 6/57/17 14/32/17
